<svg xmlns="http://www.w3.org/2000/svg" version="1.1" viewBox="0 0 519.27 214.14" xml:space="preserve">
	<style type="text/css">
		.st1{clip-path:url(#SVGID_2_);}
		.st3{fill:none;stroke:#DDF4A4;stroke-width:49;stroke-linecap:round;stroke-linejoin:round;stroke-miterlimit:10;}
	</style>
    <path
            fill="#B6DE64"
            d="M493.54,171.25c-35.63,0-64.52-28.89-64.52-64.52s28.89-64.52,64.52-64.52c3.85,0,7.62,0.36,11.29,1  L493.54,5.45H104.46v0.02C49.24,6.51,4.78,51.59,4.78,107.07c0,55.47,44.45,100.56,99.68,101.59v0.02h389.07l11.29-38.44  C501.16,170.89,497.39,171.25,493.54,171.25z"/>
    <clipPath id="SVGID_2_">
		<path d="M493.54,171.25c-35.63,0-64.52-28.89-64.52-64.52s28.89-64.52,64.52-64.52c3.85,0,7.62,0.36,11.29,1V5.45    H104.46v0.02C49.24,6.51,4.78,51.59,4.78,107.07c0,55.47,44.45,100.56,99.68,101.59v0.02h389.07l11.29-38.44    C501.16,170.89,497.39,171.25,493.54,171.25z"/>
	</clipPath>
    <g class="st1">
		<rect x="-23.16" y="55.58" fill="#A9CC54" width="451.66" height="51.1"/>
        <rect x="-23.16" y="157.59" fill="#A9CC54" width="530.98" height="72.35"/>
	</g>
    <path class="st3" d="M493.54,184.23c-43.94,0-79.56-33.62-79.56-77.56s35.62-76.56,79.56-76.56"/>
</svg>
