<svg xmlns="http://www.w3.org/2000/svg"
     viewBox="0 0 448 512"><!--!Font Awesome Free 6.5.2 by @fontawesome - https://fontawesome.com License - https://fontawesome.com/license/free Copyright 2024 Fonticons, Inc.-->
    <path d="M366 186.9l-59.5 36.9-.8 36.9-29.3-19.3-39.4 24.3c2.2 55.2 2.5 59.3 2.5 59.5l-97.2 65.4L127.2 285.7l108.1-62L195.1 197.8l-75.4 38.5L98.7 93 227.8 43.6 136.4 0 10.7 39.4 38.4 174.3l41.9 32.7L48.4 222.1 69.4 323.5 98.7 351.1 77.8 363.7l16.8 78.8L160.7 512c-10.8-74.8-11.7-78.6-11.7-78.8l77.9-55.3c16.8-12.6 15.1-10.9 15.1-10.9l.8 24.3 33.5 28.5-.8-77.1 46.9-33.5 26.8-18.4-2.5 36 25.1 17.6 6.7-74.6 58.7-43.6z"/>
</svg>