<svg viewBox="0 0 49 18" fill="none" xmlns="http://www.w3.org/2000/svg">
    <path fill-rule="evenodd" clip-rule="evenodd"
          d="M9.24416 4.60158H1.33483C0.607648 4.60158 0 5.21106 0 5.96275V10.7675C0.328725 13.4797 2.46046 15.623 5.13011 15.8973H7.76987H9.2342H10.569V14.5361V13.0429V5.96275C10.579 5.21106 9.9813 4.60158 9.24416 4.60158Z"
          fill="#FF5C17"/>
    <path fill-rule="evenodd" clip-rule="evenodd"
          d="M37.405 4.57111H35.4924H33.779C32.4442 4.8149 31.4082 5.92212 31.2389 7.30361V11.1941C31.2389 11.6919 31.6373 12.0982 32.1255 12.0982H37.405C37.8931 12.0982 38.2915 11.6919 38.2915 11.1941V7.42551V5.47517V4.57111H37.405Z"
          fill="#FF5C17"/>
    <path fill-rule="evenodd" clip-rule="evenodd"
          d="M48.3226 12.2709H46.9679H46.2805C44.9656 12.4639 43.9097 13.4797 43.6407 14.7901V17.3093C43.6407 17.6851 43.9496 18 44.3181 18H48.3226C48.6912 18 49 17.6851 49 17.3093V14.3431V12.9616V12.2709H48.3226Z"
          fill="#FF5C17"/>
    <path fill-rule="evenodd" clip-rule="evenodd"
          d="M22.5226 0H15.8983C15.2807 0 14.7827 0.507901 14.7827 1.1377V4.693C15.1213 7.14108 17.004 9.08126 19.3948 9.45711H20.8292H22.5127H23.6284V8.31941V6.60271V1.1377C23.6383 0.507901 23.1403 0 22.5226 0Z"
          fill="#FF5C17"/>
</svg>
